<svg width="429" height="80.907" viewBox="0 -5 370.185 69.815" class="css-1j8o68f">
  <path class="st0" d="M270.5 0C131.2 0 15.2 104.9 1.2 243.1 0 251.9 0 261.2 0 270.5 0 419.8 121.3 541 270.5 541S541 419.8 541 270.5 419.8 0 270.5 0zM5.8 270.5c0-8.7.6-18.1 1.2-26.8 1.2-10.5 2.9-21 5.2-31.5h203.5c14.6 0 26.2 11.7 26.2 26.2v295c-18.1-1.7-35-5.8-51.9-11.1V302.6c0-18.1-14.6-32.1-32.1-32.1h-47.2c-1.7-14.6-13.4-25.7-28.6-25.7-15.7 0-28.6 12.8-28.6 28.6s13 28.6 28.7 28.6c14.6 0 26.8-11.1 28.6-25.7H158c14.6 0 26.2 11.7 26.2 26.2v218.1C81 485.1 5.8 386.5 5.8 270.5zm99.7 2.9c0 12.8-10.5 22.7-22.7 22.7s-22.7-10.5-22.7-22.7c0-12.8 10.5-22.7 22.7-22.7s22.7 9.9 22.7 22.7zm253.1 246.7V337c0-14.6 11.7-26.2 26.2-26.2h32.1c1.7 14.6 13.4 25.7 28.6 25.7 15.7 0 28.6-12.8 28.6-28.6 0-15.7-12.8-28.6-28.6-28.6-14.6 0-26.8 11.1-28.6 25.7h-32.1c-18.1 0-32.1 14.6-32.1 32.1v184.8c-15.2 4.7-30.3 8.7-46.6 10.5v-358c0-18.1-14.6-32.1-32.1-32.1h-67.6c-1.7-14.6-13.4-25.7-28.6-25.7-15.7 0-28.6 12.8-28.6 28.6 0 15.7 12.8 28.6 28.6 28.6 14.6 0 26.8-11.1 28.6-25.7H274c14.6 0 26.2 11.7 26.2 26.2v359.1c-9.9 1.2-19.8 1.7-29.7 1.7-7.6 0-14.6-.6-22.2-1.2V238.5c0-18.1-14.6-32.1-32.1-32.1H13.4C42.6 89.8 146.9 5.8 270.5 5.8c28.6 0 56 4.7 82.2 12.8v149.3c0 18.1 14.6 32.1 32.1 32.1h32.1c1.7 14.6 13.4 25.7 28.6 25.7 15.7 0 28.6-12.8 28.6-28.6s-12.8-28.6-28.6-28.6c-14.6 0-26.8 11.1-28.6 25.7h-32.1c-14.6 0-26.2-11.7-26.2-26.2V21c102.6 36.1 176.7 134.7 176.7 249.5s-74.1 213.4-176.7 249.6zm64.1-212.3c0-12.8 10.5-22.7 22.7-22.7s22.7 10.5 22.7 22.7-10.5 22.7-22.7 22.7-22.7-9.8-22.7-22.7zM200.6 145.2c0 12.8-10.5 22.7-22.7 22.7s-22.7-10.5-22.7-22.7 10.5-22.7 22.7-22.7 22.7 9.8 22.7 22.7zm222.1 52.4c0-12.8 10.5-22.7 22.7-22.7s22.7 10.5 22.7 22.7-10.5 22.7-22.7 22.7-22.7-9.8-22.7-22.7z" style="fill:#1b5a7a" transform="translate(0 -5) scale(.1198)" xmlns="http://www.w3.org/2000/svg" fill="#1b5a7a"/>
  <path d="m88.918 37.241.012.013-.01.004-.002-.017zm-2.67-17.63v-.01h.01l-.007.009v.002zm7.422 34.993c.04 1.247.095 2.485.022 3.73-.04.676-.07 1.352.004 2.036.075.688-.194 1.056-.882 1.073-.72.016-1.354.55-2.095.289-.328.318-.714.433-1.174.463a8.757 8.757 0 0 1-1.208.017c-.465-.035-.886.151-1.368-.195-.344-.243-.33.352-.559.565-.275-.235-.287-.56-.32-.866-.04-.383-.026-.773-.09-1.15-.04-.235-.187-.166-.286-.006l.01-.006v.04l-.01-.03-.17.172a.963.963 0 0 1 .006.012h-.018l.01-.014c-.087-.647-.06-1.066.091-1.56a.51.51 0 0 0 .03-.255c-.33-1.302-.125-2.625-.188-3.937-.036-.769-.1-1.532-.157-2.299-.061-.823-.15-1.643-.081-2.479.05-.607-.106-1.218-.116-1.84-.026-1.594.057-3.19-.012-4.786-.06-1.44-.218-2.888.014-4.331.055-.348.053-.714.004-1.063-.048-.344-.02-.635.189-.922.17-.237.335-.498.105-.802-.035-.044-.077-.127-.061-.154.644-.914.316-2.056.719-3.062.293.128.228.39.218.601-.036.68-.142 1.36-.138 2.038.019 2.393.071 4.787.152 7.181.21-.735.1-1.502.203-2.255.212.049.188.227.265.332l.196-.002c.34-1.388.441-2.805.494-4.228.014-.38-.045-.797.364-1.133.134.375-.158.658.03.931l-.012-.014.183.36c.425.124.297.569.473.887.348-.124.144-.561.413-.684.11 1.546.787 3.015.526 4.62.243-.057.219-.206.217-.3-.081-1.955.19-3.9.186-5.848-.002-1.925.13-3.842.245-5.758.08-1.332-.21-2.641-.257-3.967-.097-2.785-.071-5.566-.073-8.35 0-.326-.004-.652-.016-.978-.006-.121-.043-.247-.188-.261-.193-.018-.255.125-.27.28-.024.293-.032.588-.08.89-.136-.943-.023-1.941-.654-2.943-.182.961-.142 1.793-.197 2.805-.36-1.028-.257-1.918-.378-2.906-.308.668-.166 1.364-.611 1.89-.282-.208.02-.607-.324-.824-.227.268-.265.608-.318.946l-.477 3.05c-.156-.007-.318-.027-.336.202l.131.2c-.425.263-.473.688-.486 1.152-.348-.749-.374-1.536-.382-2.307-.018-1.6-.101-3.2-.077-4.797.036-2.12-.215-4.258.243-6.363.03-.146.03-.297.069-.439.158-.597.338-.753.947-.648 1.57.278 3.137.587 4.701.893.553.107 1.097.253 1.652.352.445.081.674.322.718.767.18 1.739.445 3.473.17 5.228a2.024 2.024 0 0 0-.034.53c.269 2.392.077 4.794.15 7.19.07 2.342.012 4.684.006 7.027-.004 3.172.036 6.343.014 9.513-.018 2.4-.012 4.802-.016 7.202-.004 1.239.176 2.49-.081 3.724a.662.662 0 0 0-.008.265c.382 1.77-.017 3.542.04 5.311zm-7.889-34.75a19.368 19.368 0 0 1 .101-.048c-.018 0-.034 0-.05.006-.02.006-.035.028-.051.042zm3.799-4.031c.063.04.125.008.121-.067 0-.046-.05-.09-.079-.137-.07-.023-.13 0-.127.068.002.049.044.108.085.136zm-2.848 25.444.033-.093a.144.144 0 0 0-.029.034c-.01.016-.004.04-.004.059zm.328 1.42c.043-.6.174-1.07-.08-1.527-.122.465-.238.935.08 1.528zm1.42-2.912c-.015.016-.042.033-.044.049 0 .02.02.04.035.06l.048-.046-.038-.063zm-.627-2.277c.047.075.136.152.203.096.172-.142.01-.308-.008-.464-.002-.02-.012-.042-.02-.065-.231.073-.316.207-.175.433zm.087.411c-.04.401-.085.648.081.978.237-.358.197-.597-.08-.978zm.622 2.544c-.445-.103-.199-.684-.652-.963.053 1.174-.04 2.23.324 3.252a.82.82 0 0 1 .494-.168c-.37-.445-.53-.91-.158-1.44.16-.227 0-.454-.008-.68zm-.243 4.562v-.06l-.039.03zm.075.767.008.006zm-.158-3.02c.004.512.01.514.46.608a1.48 1.48 0 0 0-.46-.608zm1.352.217a.158.158 0 0 0 .002-.081c-.006-.024-.024-.044-.037-.069l-.024.156c.02 0 .057 0 .059-.006zm-.466-12.491c-.03-2.781-.072-5.56.02-8.338.007-.162-.066-.357.156-.513.156 1.369.142 2.719.152 4.064.012 1.773-.04 3.546-.06 5.321-.005.174.004.35-.118.496-.14-.33-.146-.682-.15-1.032zm.154 1.046-.01-.008.004-.008.006.016zm-.613-5.38c-.069-1.626-.146-3.254.069-4.877-.02 1.627-.01 3.253-.069 4.878zm-2.578 6.435c-.387-.308.085-.697-.071-1.027.257.324.255.668.07 1.027zm2.683 4.393c-.137-.427-.012-.696.182-.95.037.29.142.592-.182.95zm-2.704-6.302-.008-.002.008-.01v.012zm.182.421c-.153.06-.198-.047-.202-.174 0-.081.012-.164.02-.247.114.028.21.079.25.2.024.085.02.187-.07.221zm3.03.433-.01.02-.002-.03.012.01zm.02.632c-.174-.215-.141-.415-.03-.612l.03.612zm-.516-12.783c.118-.008.118.093.114.172-.004.053-.04.15-.059.148-.101-.008-.128-.091-.13-.187.023-.042.047-.131.075-.133zm-2.728 11.064.006-.006.002.016.004.21-.01.011c0-.077 0-.154-.004-.23zm.116-.127c-.02.046-.071.08-.11.121-.008-.054-.024-.109-.012-.156.02-.077.065-.15.103-.222a.205.205 0 0 1 .071.02c-.014.081-.02.162-.052.237zm3.116-9.332c-.06.012-.09-.02-.08-.081.014-.02.024-.053.04-.057.06-.012.093.02.08.081-.003.022-.024.053-.04.057zm-.338 15.02.002-.007.012.016-.008-.004.008.004-.012.014-.002-.022zm-.052-.363c.09.036.131.109.115.202-.01.055-.04.103-.06.154l-.092-.126c-.048-.067-.111-.133-.04-.222.01-.015.054-.019.077-.008zM87.7 34.523c.006-.02.044-.046.056-.04.12.052.083.162.087.255-.099-.037-.188-.081-.143-.215zm.155.219-.01.01v-.014l.01.004zm.917-14.42c.063.006.083.045.061.107l-.121.053c-.002-.045-.01-.09-.005-.132.003-.014.043-.03.065-.028zM85.45 62.013c.012-.006.037.014.057.02 0 .025.008.057-.004.071-.04.047-.08.033-.09-.036-.003-.016.02-.045.037-.055zm2.408-30.882-.03.057-.034-.049zm-2.786-3.894.05.005-.03.048zm1.02 5.394-.012-.028.006-.014.006.004-.01.008a.308.308 0 0 1 .01-.008v.038zm.03.077c-.01-.016-.024-.03-.028-.047a.13.13 0 0 1-.002-.03zm-.41 28.04.003-.006.012.006h-.018zm-.082.128c-.028-.043-.052-.085-.079-.13l.162.002-.085.128zm.097-.128-.012-.006a.15.15 0 0 1 .012-.014v.02zm.02-.062c.003.012-.01.026-.02.04v-.131c.008.03.019.06.02.09zm-.562-35.009.01-.01-.01.01zm2.858 7.66-.012-.01.012.01zm.006.693-.01.01.01-.01zM115.39 7.942l-.008.008-.012-.006.02-.002zM103.589 21.75l-.012-.008.008.002zm23.38-17.108c-.193.273-.223.466.123.83-.573-.049-1.008-.09-1.445-.121-.662-.053-1.326-.1-1.988-.15a.49.49 0 0 0-.463.202c-.06 0-.122.006-.186.008l.01-.008c-.318.245-.668.31-1.012.093-.44-.275-.919-.287-1.4-.269-.99.037-1.96.267-2.951.2-.004.375.216.324.378.336 1.415.1 2.827.203 4.24.34 1.03.102 2 .468 3.022.581.267.03.267.19.08.354l-.012.185c-.443.186-1.011.267-1.266.178l.006.008c-.755.318-1.54.182-2.316.133-1.59-.093-3.18-.206-4.768-.313-.2.423-.577.348-.927.31-.834-.092-1.657-.005-2.651.092.729.264 1.382-.03 1.927.314-.237.014-.492.022-.648.223-.358.473-.87.502-1.388.516-.603.016-1.21-.002-1.814.034-.71.045-.773.136-.78.814-.021 1.603-.023 3.204-.074 4.804-.08 2.652-.176 5.303-.19 7.954-.008 1.33-.257 2.657-.212 3.981.054 1.573-.294 3.127-.128 4.695.113 1.093-.146 2.166-.15 3.259a211.889 211.889 0 0 1-.315 10.234 106.394 106.394 0 0 0-.166 4.882c-.017 2.414-.108 4.827-.134 7.241-.016 1.569-.142 3.127.17 4.688.121.607-.162.89-.801.945-.994.085-1.99.141-2.984.202-.631.04-1.262.016-1.896.132-.844.155-1.328-.219-1.481-1.053-.318-1.728-.405-3.47-.328-5.225.038-.875.05-1.751.048-2.625 0-2.206.267-4.398.365-6.598.089-1.992.137-3.985.202-5.977.02-.623.121-1.23.257-1.817.41.028.178.405.433.48.168-2.534.462-5.054.476-7.59.006-.797.317-1.534.364-2.319.012-.243.06-.478.016-.72a9.82 9.82 0 0 1-.08-3.218c.092-.614.129-1.265-.063-1.885-.132-.42-.041-.838-.037-1.258.006-.377.142-.87-.445-1.002-.116-.237-.182-.476-.006-.715h-.002c-.097-.5-.27-.991-.081-1.52.259.365.259.365.384.933.059-.445.136-.89.174-1.335.04-.482.055-.966.06-1.45.005-.724-.005-1.45-.013-2.175-.002-.182.028-.393-.05-.538-.677-1.251-.446-2.611-.488-3.935-.02-.585-.049-.732-.723-.651-1.712.206-3.436.196-5.159.141-.81-.026-.882-.115-1.174-.86-.631-1.603-1.297-3.192-1.93-4.792-.427-1.083-.142-1.518 1.014-1.597 1.807-.124 3.612-.338 5.417-.328 1.24.008 2.476-.081 3.694-.154 3.447-.198 6.89-.14 10.33-.069 2.681.055 5.381.093 8.034.6 1.008.192 2.014.372 3.036.445.21.016.427.05.622.127.382.152.491.419.242.773zm-23.36 16.4c.04.064.047.192.182.084l-.182-.085zm.512 20.27c.09-.097.033-.2.01-.303-.065.089-.141.174-.08.295.007.012.06.02.07.008zm.02-.346c.047-.06.166-.105.039-.206l-.039.206zm.243-2.594.04.014-.013-.055zm10.994-31.336c.08 0 .162-.032.245-.052-.059-.122-.15-.118-.235-.112-.057.005-.152.017-.162.045-.036.13.083.12.152.12zm1.109.004.53.179v-.353a.998.998 0 0 0-.53.174zm.534-.19c.158-.077.38.004.51-.182-.16-.164-.344-.19-.5-.136-.222.077-.069.207-.01.318zm8.35.37-.006.009v-.006l.007-.002zM103.41 27.916l-.01.007.002-.01.008.003zm.123-4.51c.053 1.533.118 3.019-.131 4.504-.292-.182-.375-.471-.328-.775.162-1.1.026-2.214.152-3.315.016-.141-.004-.305.307-.415zm-.131 4.713v-.016l.006.004-.006.012zm-.174 1.985-.008-.008.01-.016-.002.024zm.002-.024c.08-.652-.176-1.334.172-1.961.024.662.27 1.342-.172 1.961zm.36-8.33-.012.02v-.028zm-.105.913c-.154-.43-.156-.438.093-.893 0 .287.038.58-.093.893zm21.562-16.999c-.478.136-.79.105-1.093-.07.31.032.63-.122 1.093.07zm-1.091-.069-.035-.004.009-.01.026.014zm2.062.233c.022 0 .06.029.065.047.008.07-.036.095-.113.073l-.116-.098c.055-.008.11-.022.164-.022zm-2.83-.417.009-.01-.006.008.008-.008c0 .006.004.01.006.016l-.016-.006zm.537.176c-.249.166-.419.095-.522-.17zm.008-.006.008.01-.016-.004.008-.006zm2.024 1.73c-.156.1-.253-.014-.362-.08.121.014.259-.047.362.08zm-.384-.09a.45.45 0 0 1 .02.012c-.008 0-.018 0-.027-.004l.007-.008zM102.9 35.704c.006-.024.034-.04.052-.06.015.022.04.044.043.068.012.087-.022.118-.085.075-.016-.012-.018-.056-.01-.083zm.797-17.82.071-.006-.03.06zm-.739 15.722.017.056-.049-.014zm.017 2.962-.057-.018.038-.046zm23.205-29.59-.012-.055.063.02zM102.864 37.55l-.032.07.024-.076.006-.01v.016zm-.002-.354c.077.111.071.222 0 .336v-.336zM123.757 5.58c.048-.034.097-.032.145 0h-.145zm-.025.002h.025l-.017.01-.008-.01zm.195-.002-.009.01-.018-.01h.027zm-21.069 31.603.004.014-.008-.01zm.547-9.077-.006-.006.008-.008v.014zm.002-.19v.034l-.008-.028zm.024.129c.002.014-.012.03-.024.047v-.142c.01.032.02.063.024.095zm21.275 7.411.012.01-.01.005v-.015zm31.398-8.722c.06.344.04.667-.316.85-.405.212-.854.283-1.297.331-1.397.15-2.793.272-4.19.403-.206.02-.42.01-.621.055-.405.085-.64.227-.61.769.1 1.789-.017 3.584 0 5.373.015 1.403-.086 2.8-.096 4.198-.01 1.372-.158 2.744-.31 4.11-.202 1.836-.599 3.637-1.008 5.442-.267 1.182-.45 2.394-.811 3.552-.535 1.704-1.174 3.37-2.044 4.946-.39.707-.755 1.409-1.241 2.057-.593.789-1.346 1.321-2.263 1.686-1.392.552-2.851.884-4.27 1.347-.623.203-1.24.431-1.872.608-1.136.32-2.105-.01-2.975-.78-.733-.647-1.184-1.493-1.73-2.27-.881-1.255-1.41-2.692-2.008-4.08a18.518 18.518 0 0 1-.826-2.364c-.686-2.473-1.392-4.945-1.933-7.456a6.106 6.106 0 0 1-.158-1.06 18.375 18.375 0 0 0-.536-3.714c-.354-1.433-.419-2.895-.587-4.348-.04-.33-.142-.732.306-.918l.097.605c.032.202.152.348.356.315.202-.034.247-.222.251-.417.012-.981.014-1.942-.267-2.918-.304-1.05-.601-2.119-.674-3.226a.304.304 0 0 0-.02-.087c-.59-1.524-.587-3.151-.709-4.736-.178-2.311-.226-4.638.24-6.942.151-.757.22-1.532.341-2.297.284-1.8.919-3.48 1.757-5.055 1.13-2.125 2.833-3.447 5.371-3.757 1.94-.234 3.813-.109 5.701.177.95.141 1.909.06 2.854.263a8.581 8.581 0 0 1 4.218 2.214c1.528 1.443 2.651 3.214 3.999 4.802.31.369.652.693 1 1.016.107.102.242.176.344.284a.69.69 0 0 1 .174.742c-.101.314-.365.377-.644.37-.567-.011-1.137-.02-1.702-.068-1.04-.09-2.082-.322-3.115-.281-1.303.052-2.214-.43-3.102-1.352-.876-.909-1.633-1.887-2.374-2.894-.617-.842-1.253-1.674-2.069-2.34-.53-.433-.613-.413-1.127.024-1.58 1.346-2.323 3.147-2.764 5.104-.257 1.134-.563 2.27-.678 3.42-.187 1.842-.494 3.674-.45 5.534.03 1.25-.03 2.51.081 3.754.278 3.153.466 6.31.945 9.448.523 3.43 1.215 6.824 1.947 10.21.397 1.84.992 3.623 1.62 5.402.39 1.103.896 2.145 1.368 3.207.06.136.1.282.311.355.365-.363.468-.885.607-1.344.41-1.336.804-2.686 1.245-4.008.68-2.044.708-4.165 1.01-6.253.314-2.182.413-4.392.53-6.598.055-1.006.014-2.044.257-3.005.235-.921.22-1.826.263-2.745.047-.939-.184-1.837-.378-2.742-.069-.324-.23-.455-.553-.447-.566.012-1.137-.017-1.704.018-.88.053-1.71-.247-2.574-.304-.225-.016-.302-.162-.275-.372a1.168 1.168 0 0 1 .971-1 111.043 111.043 0 0 1 3.386-.344c2.617-.225 5.23-.482 7.865-.455 1.848.016 3.7-.189 5.543-.387a14.82 14.82 0 0 1 1.342-.073c.297-.006.524.122.58.446zm-29.494 5.359c-.334.303-.338.576-.29.894.09.577.132 1.16.193 1.74l.354-.005c.014-.869.006-1.733-.257-2.63zm-.182 3.31.02-.068-.054.014zm.526-.283c.043-.157.014-.275-.079-.378-.012.121-.06.25.081.378zm-2.303-.245c-.006.094-.07.166-.172.154-.03-.004-.073-.085-.075-.133-.004-.093.03-.172.154-.146.032.04.097.087.093.125zm50.307-7.045.008.007h-.008v-.007zm4.55-11.444-.009.006v-.006h.009zm18.346 17.8c.384.88.43 1.863.354 2.845-.12 1.514-.547 2.959-.917 4.418l.01-.008a9.87 9.87 0 0 1-1.133 2.449c-.182.285-.336.574-.415.902-.026.118-.03.26-.101.344-1.35 1.654-2.214 3.678-3.835 5.113-.7.621-1.21 1.4-1.903 2.028-1.046.945-2.076 1.918-3.025 2.96a21.392 21.392 0 0 1-4.665 3.821c-1.923 1.174-3.815 2.44-5.97 3.202a5.084 5.084 0 0 1-3.534.008c-1.284-.449-2.603-.797-3.913-1.165-.586-.164-1.133-.417-1.696-.636a1.067 1.067 0 0 1-.566-.435c-.26-.441-.014-.978.47-1.184a1.089 1.089 0 0 1 .963.008c.738.403 1.382.184 2.044-.166.902-.477 1.805-.951 2.687-1.477 1.199-.713 2.227-1.654 3.447-2.328.976-.54 1.86-1.242 2.518-2.177.069-.1.127-.237.222-.28.897-.388 1.285-1.325 2.044-1.866.334-.236.577-.61.828-.949a8.43 8.43 0 0 1 1.31-1.378c.51-.433.933-.931 1.325-1.467 1.018-1.389 2.133-2.698 3.097-4.133 1.295-1.929 2.216-4.011 2.908-6.2.5-1.576.334-3.168-.21-4.72-.138-.391-.379-.517-.838-.466-2.1.237-4.028.987-5.932 1.835-.58.26-1.166.496-1.75.741l.005-.006c-.973.4-1.922.858-2.983 1.032-.409.065-.803.253-1.194.413-.613.251-1.269.332-1.862.105-.91-.346-1.872-.471-2.783-.789-1.14-.399-2.279-.81-3.436-1.143-1.405-.405-2.024-1.427-2.332-2.739-.568-2.412-.131-4.754.636-7.03.633-1.887 1.4-3.729 2.127-5.584.722-1.842 1.754-3.508 2.746-5.185.634-1.071 1.399-2.097 2.182-3.097.939-1.198 2.032-2.222 3.092-3.29 1.32-1.326 2.896-2.263 4.598-2.976a2.53 2.53 0 0 1 1.854-.01c1.613.62 3.097 1.492 4.586 2.356.555.324.806.886 1.15 1.368.192.273-.026.617-.324.55-1.728-.376-2.922.628-4.139 1.569-.307.237-.56.58-1.012.308v.004c-.364.01-.587.214-.724.528l.516-.085c-.247.512-.35 1.058-1.107.811-.271-.089-.44.15-.57.359-.881 1.4-2.035 2.596-2.956 3.966-.182.272-.556.53-.253.945l.073-.046-.067.053-.006-.007.004.18c-.465.003-.663.34-.82.695-.106.243-.1.441.26.239.141-.081.267.05.192.166-.368.58-.567 1.3-1.259 1.63.081.18.162.361 0 .54-.732 1.632-1.453 3.27-2.206 4.893-.158.336-.29.656-.253 1.026.037.38-.17.692-.285 1.026-.122.344-.243.678-.168 1.048l-.174.18.172.009c-.101.59-.223 1.18-.296 1.774-.08.642.09.77.703.533.957-.37 1.922-.727 2.847-1.166 1.929-.915 3.987-1.388 6.062-1.767a6.928 6.928 0 0 1 3.133.186c1.698.482 3.27 1.245 4.816 2.065.83.437 1.729.698 2.536 1.194a7.67 7.67 0 0 1 3.095 3.53zm-11.65-25.959c-.287.065-.47.231-.52.527a1.083 1.083 0 0 0 .52-.527zm-1.382 1.19c-.065-.062-.14.035-.176.108-.02.042-.034.09-.05.137.04-.024.087-.046.125-.077.059-.042.174-.097.101-.168zm-6.962 9.664v-.133c-.012.014-.026.03-.026.042.004.03.016.061.026.091zm.38-1.081c.046-.065.182-.112.04-.217l-.04.217zm-.353.609c-.103.097-.05.206-.02.311.085-.08.162-.165.093-.295-.008-.016-.06-.026-.073-.016zm-.072 1.01c-.015-.008-.035-.008-.051-.012l.08.036a.172.172 0 0 0-.03-.024zm4.041-6.135.006.006c-.004 0-.006.005-.01.007l.004-.013zm-1.277 1.81c.336-.662.502-1.445 1.273-1.795-.29.692-.587 1.378-1.25 1.815-.082.253-.262.364-.612.384.17-.273.405-.303.587-.404zm2.546-3.993.008.01-.006.008-.002-.018zm-.15.574a.773.773 0 0 1 .152-.556 1.133 1.133 0 0 0 .19.536l-.006-.006.006.006-.006-.006c-.04.105-.048.26-.176.273-.16.017-.15-.14-.16-.247zm-.925 1.423a.348.348 0 0 1-.004.008v-.004.004l-.182.184-.008-.006.186-.182.008-.004zm.28-.233c.073.087-.033.15-.114.185-.052.022-.11.034-.166.048.025-.052.041-.11.075-.156.049-.075.136-.162.205-.077zm-2.864 3.815c-.093-.012-.047-.15-.024-.232l.062-.25c.041.078.102.15.114.231.02.116.008.272-.152.251zm.043-.495a.838.838 0 0 1-.005.014l-.004-.008.009-.006zm3.086-3.738c.008-.025.018-.07.024-.07.045 0 .09.013.134.021l-.023.073-.135-.024zm1.255-1.2c0-.023.026-.05.04-.073.026.008.063.008.071.024.01.02.01.063-.006.08-.055.068-.097.055-.105-.032zm-.533-.144-.008.01h-.176l-.008-.01h.192zm-8.354 16.354v-.008.008zm.03.116c0 .014-.014.03-.026.046l-.004-.162c.012.039.026.077.03.116zm-.026.063-.008-.007.008-.01v.017zm44.045-19.893-.008.008-.012-.006.02-.002zM207.21 21.75l-.012-.008.008.002zm23.38-17.11c-.193.273-.223.466.123.83-.573-.049-1.008-.09-1.445-.121-.662-.053-1.326-.1-1.987-.15a.49.49 0 0 0-.464.202c-.06 0-.121.006-.186.008l.01-.008c-.318.245-.668.31-1.012.093-.44-.275-.919-.287-1.4-.269-.99.037-1.96.267-2.951.2-.004.375.216.324.378.336 1.415.1 2.828.203 4.24.34 1.03.102 2 .468 3.022.581.267.03.267.19.08.354l-.011.185c-.444.186-1.012.267-1.267.178l.006.008c-.755.318-1.54.182-2.316.133-1.59-.093-3.179-.206-4.768-.313-.2.423-.577.348-.927.31-.833-.092-1.657-.005-2.65.092.728.264 1.381-.03 1.926.314-.237.014-.492.022-.648.223-.358.473-.87.502-1.388.516-.603.016-1.21-.002-1.814.034-.71.045-.773.136-.78.814-.021 1.603-.023 3.204-.074 4.804-.08 2.652-.176 5.303-.19 7.954-.008 1.33-.257 2.657-.212 3.981.054 1.573-.294 3.127-.128 4.695.113 1.093-.146 2.166-.15 3.259a211.889 211.889 0 0 1-.315 10.234 106.394 106.394 0 0 0-.166 4.882c-.016 2.414-.108 4.827-.134 7.241-.016 1.569-.142 3.127.17 4.688.122.607-.162.89-.801.945-.994.085-1.99.141-2.983.202-.632.04-1.263.016-1.897.132-.844.155-1.327-.219-1.481-1.053-.318-1.728-.405-3.47-.328-5.225.038-.875.05-1.751.048-2.625 0-2.206.268-4.398.365-6.598.089-1.992.137-3.985.202-5.977.02-.623.122-1.23.257-1.817.411.028.178.405.433.48.168-2.534.462-5.054.476-7.59.006-.797.318-1.534.364-2.319.012-.243.06-.478.016-.72a9.82 9.82 0 0 1-.08-3.218c.092-.614.129-1.265-.063-1.885-.132-.42-.04-.838-.037-1.258.006-.377.142-.87-.445-1.002-.115-.237-.182-.476-.006-.715h-.002c-.097-.5-.27-.991-.081-1.52.259.365.259.365.384.933.06-.445.136-.89.174-1.335.041-.482.055-.966.06-1.45.005-.724-.005-1.45-.013-2.175-.002-.182.028-.393-.05-.538-.677-1.251-.446-2.611-.488-3.935-.02-.585-.049-.732-.723-.651-1.712.206-3.436.196-5.159.141-.81-.026-.882-.115-1.173-.86-.632-1.603-1.298-3.192-1.931-4.792-.427-1.083-.142-1.518 1.014-1.597 1.807-.124 3.612-.338 5.418-.328 1.238.008 2.475-.081 3.693-.154 3.447-.198 6.89-.14 10.33-.069 2.681.055 5.381.093 8.035.6 1.007.192 2.013.372 3.035.445.21.016.427.05.622.127.382.152.491.419.243.773zm-23.36 16.4c.04.064.047.192.182.084l-.182-.085zm.512 20.27c.09-.097.033-.2.01-.303-.064.089-.141.174-.08.295.008.012.06.02.07.008zm.02-.346c.047-.06.166-.105.039-.206l-.039.206zm.243-2.594.04.014-.013-.055zM219 7.035c.08 0 .162-.032.245-.052-.059-.122-.15-.118-.235-.112-.057.005-.152.017-.162.045-.036.13.083.12.152.12zm1.109.004.53.179v-.353a.998.998 0 0 0-.53.174zm.534-.19c.158-.077.38.004.51-.182-.16-.164-.344-.19-.5-.136-.222.077-.068.207-.01.318zm8.35.37-.005.009v-.006l.006-.002zM207.03 27.916l-.01.007.002-.01.008.003zm.123-4.51c.053 1.533.118 3.019-.131 4.504-.292-.182-.375-.471-.328-.775.162-1.1.026-2.214.152-3.315.016-.141-.004-.305.307-.415zm-.131 4.713v-.016l.006.004-.006.012zm-.174 1.985-.008-.008.01-.016-.002.024zm.002-.024c.08-.652-.176-1.334.172-1.961.024.662.271 1.342-.172 1.961zm.36-8.33-.012.02v-.028zm-.105.913c-.154-.43-.156-.438.093-.893 0 .287.038.58-.093.893zm21.562-16.999c-.478.136-.79.105-1.093-.07.31.032.63-.122 1.093.07zm-1.091-.069-.034-.004.008-.01.026.014zm2.062.233c.023 0 .061.029.065.047.008.07-.036.095-.113.073l-.116-.098c.055-.008.11-.022.164-.022zm-2.83-.417.009-.01-.006.008.008-.008c0 .006.004.01.006.016l-.016-.006zm.537.176c-.249.166-.419.095-.522-.17zm.008-.006.008.01-.016-.004.008-.006zm2.024 1.73c-.156.1-.253-.014-.362-.08.121.014.259-.047.362.08zm-.384-.09a.45.45 0 0 1 .02.012c-.008 0-.018 0-.026-.004l.006-.008zM206.52 35.703c.006-.024.034-.04.052-.06.015.022.041.044.043.068.012.087-.022.118-.085.075-.016-.012-.018-.056-.01-.083zm.797-17.82.071-.006-.03.06zm-.738 15.722.016.056-.049-.014zm.016 2.962-.057-.018.039-.046zM229.8 6.977l-.012-.055.063.02zM206.485 37.55l-.032.07.024-.076.006-.01v.016zm-.002-.354c.077.111.071.222 0 .336v-.336zM227.378 5.58c.048-.034.097-.032.145 0h-.145zm-.025.002h.025l-.017.01-.008-.01zm.195-.002-.008.01-.019-.01h.027zm-21.069 31.603.004.014-.008-.01zm.547-9.077-.006-.006.008-.008v.014zm.002-.19v.034l-.008-.028zm.024.129c.002.014-.012.03-.024.047v-.142c.01.032.02.063.024.095zm47.623 22.068.006.006-.014-.008.004-.002a1.318 1.318 0 0 1 .012-.038l-.002.048-.006-.006zm.86 8.359.015-.013-.004.02-.01-.007zm.737-34.574-.01.008.002-.008h.008zm.536-13.568c.5.261.656.567.616 1.126-.128 1.742-.142 3.493-.294 5.233-.202 2.267-.494 4.526-.753 6.788-.016.142-.074.281-.115.421l-.182.006c-.101-.176-.196-.425-.41-.111-.094.135-.11.336-.126.508-.11 1.198-.417 2.376-.276 3.598.049.427-.192.842-.238 1.29-.15 1.436-.116 2.89-.369 4.316-.05.284-.03.6-.384.709.066-.29-.205-.587.02-.87l-.01.012c-.101-.14-.278-.25-.298-.006-.109 1.285-.477 2.533-.38 3.857.077 1.036-.087 2.095-.195 3.139-.194 1.848-.255 3.704-.358 5.555l-.135 2.546c-.006.146.008.288.123.395-.121 1.008-.415 2.014 0 3.022l.01-.006v.024l-.008-.014c-.09.121-.113.239 0 .356l.008-.016v.026l-.01-.004c.032.174.059.393.283.374.164-.012.18-.202.179-.356-.004-1.113-.051-2.234.097-3.34.168-1.244.03-2.51.33-3.743.145-.601-.071-1.245.194-1.838l-.01.006v-.2l.01.006a1.441 1.441 0 0 1-.01-.15c.228.053.348.207.313.433-.054.352.057.694.029 1.038-.022.274-.022.47.222.676.304.257.344.593-.028.865l.002.342v.002c.26.36.239.663-.172.894 0 .192.034.377.168.526v.02-.024l.004.01c.253-.125.338.035.294.227-.083.368-.26.692-.648.836v-.352l-.012.014.004-.008.01-.014c-.103.121-.121.243-.012.364.004 0 .008 0 .012-.004v.018l-.014-.01c.176.352.02.708.018 1.065l.36.204c-.336.585-.64 1.174-.419 1.886a.77.77 0 0 1 .004.352c-.332 1.798.008 3.589.059 5.382.008.32-.156.635-.002.957.115.243-.055.735.516.559.02-.006.05.022.075.036.172.105-.097.516.255.447.362-.07.164-.44.235-.674.06-.19.103-.384.154-.576.435.354.368.959.698 1.388.206.271-.095.662-.478.638-.482-.029-.94-.081-1.315.307-.019.02-.063.037-.081.026-.727-.408-1.417.122-2.137.077-.733-.044-1.464.006-2.142.403-.522.304-1.14.346-1.73.29-.615-.061-1.018-.425-1.174-1.049-.37-1.502-.68-3.025-.668-4.566.012-1.129-.127-2.244-.127-3.37-.002-1.568-.083-3.136-.132-4.703-.006-.23-.002-.465-.137-.672l-.017.002.008-.014.013.012c-.049-.2-.189-.311-.37-.378.6-1.02.47-2.121.442-3.331-.338.404-2.79 6.927-3.15 8.25.173.179.384.041.576.06.308-.604.547-1.247.951-1.794.247.126.205.253.122.395-.405.674-.415 1.473-.715 2.186-.757 1.801-1.392 3.657-2.202 5.434-.556 1.226-1.192 2.447-2.274 3.34-.189.153-.37.293-.62.319-2.412.263-4.804.694-7.233.844-1.038.065-1.712-.34-2.331-1.133-.869-1.122-1.261-2.423-1.539-3.745-.445-2.11-.68-4.256-.815-6.423-.126-1.98-.132-3.96-.251-5.94a1.034 1.034 0 0 1 0-.176c.21-1.838-.095-3.67-.04-5.505.012-.417.001-.83.113-1.239.04-.141.103-.303.069-.433-.312-1.18.105-2.358-.003-3.538-.074-.823.065-1.655.122-2.473.095-1.445.083-2.902.293-4.343.11-.759.138-1.536.134-2.305-.006-1.283.168-2.54.419-3.79.028-.146.067-.296.06-.44-.095-1.9.213-3.768.357-5.653a30.682 30.682 0 0 1 .528-3.596 4.23 4.23 0 0 1 .182-.684c.229-.573.456-.737 1.02-.567 1.563.47 3.133.913 4.635 1.563.3.127.435.378.607.623.368.526.722 1.057.773 1.739.249-.073.075-.318.196-.425.063-.057.136-.136.209-.14.137-.006.222.105.206.233-.111.914-.002 1.83-.014 2.744-.022 1.743-.182 3.49-.34 5.22-.142 1.542.047 3.072-.091 4.61-.04.443-.17.967.04 1.45.217.507-.026 1.041.03 1.565.053.498-.127.992-.072 1.506.057.526.101 1.073.036 1.593-.25 1.945.114 3.906-.21 5.849-.038.226.002.471.034.706.16 1.182.08 2.366-.02 3.544-.08.981.03 1.955.028 2.932 0 1.377.092 2.753.144 4.17.389-.112.399-.375.46-.587.607-2.077 1.416-4.08 2.145-6.112a50.379 50.379 0 0 0 1.107-3.47c.35-1.244.556-2.55 1.228-3.693.045-.077.098-.16.106-.243.178-1.7.955-3.234 1.311-4.883.176-.816.664-1.526.777-2.36.245-1.828.86-3.566 1.362-5.325.397-1.392.844-2.783 1.15-4.191.403-1.854.951-3.663 1.42-5.497.47-1.831.982-3.663 1.654-5.436.265-.708.555-.826 1.326-.587 1.673.522 3.244 1.308 4.891 1.903.585.21 1.154.449 1.71.738zm-22.99 36.551.012-.01zm.004 2.503-.009-.01zm-.114-6.885v1.652h.071v-1.652h-.07zm-.174 9.828.055.02-.02-.077zm.2-6.932c-.016.049-.046.098-.046.146 0 .049.04.142.047.14.1-.022.08-.111.085-.182l-.085-.102zm.005 8.363.06-.125-.044-.061c-.02.04-.045.08-.057.127-.004.014.026.04.04.061zm.02-2.995c.02.048.054.109.099.127.06.025.09-.028.07-.105-.032-.04-.054-.107-.096-.121-.07-.027-.106.026-.073.099zm.192 1.145c.014-.052.037-.103.039-.156.004-.075-.049-.123-.09-.093-.034.025-.038.097-.04.152-.006.073.03.107.091.097zm.219 2.097.012-.01zm.287-16.146c-.261.856-.389 1.505.24 2.066.256-.397-.027-.714-.153-1.056l-.01.01c.156-.284.217-.567-.077-1.02zm.081 5.492c-.287.073-.304.255-.182.49l.182-.49zm.008 2.692a.577.577 0 0 0 .045-.247c0-.048-.033-.097-.055-.144-.036.043-.089.081-.101.132a.573.573 0 0 0-.016.255c.012.06.097.067.127.004zm-.133-1.427c-.02.063-.075.164.06.18.006 0 .03-.1.037-.155.008-.073.01-.148.014-.223-.04.065-.09.127-.111.198zm.141-1.301c.008-.014.016-.03.014-.043a.38.38 0 0 0-.026-.072l.012.115zm-.03-.196v-.132c-.016.014-.037.028-.035.037.007.032.02.064.035.095zm-.075 6.019c.06.034.115.006.111-.067-.004-.049-.052-.095-.085-.148-.02.049-.048.091-.06.138-.004.022.014.064.034.077zm.263-1.895.008.01-.176-.346c-.263.375-.162.76-.055 1.146.102-.27.065-.563.223-.81zm.057-5.215c.014-.146-.023-.275-.174-.34-.023-.01-.108.052-.114.087-.022.143-.006.301.116.384.08.061.135-.046.172-.131zm-.18-.781c.186-.519.34-.901.115-1.304-.281.107-.35.284-.168.54l-.008-.01.008.01-.008-.01c-.115.235-.122.452.06.774zm8.37 11.912c.016.006.037.004.057.006l-.081-.02c.006.006.016.01.024.014zm.193-.729c-.45.132-.438.379-.272.672.02-.234.35-.364.272-.674zm3.19-13.895c.02-.15.007-.32-.16-.377-.2-.065-.246.105-.282.247-.081.332-.338.553-.512.826l.01-.012c-.134.158-.152.356-.19.546l.012-.012c-.457.866-.729 1.805-1.044 2.726-.842 2.46-1.64 4.932-2.625 7.34-.595 1.448-1.227 2.879-1.755 4.354-.162.453.348 1.099-.39 1.374-.05.018-.007.117.07.107.494-.06.21.164.11.308-.073.103-.136.208-.01.3.12.087.22.008.293-.094.12-.17.255-.331.344-.514.641-1.297 1.315-2.578 1.823-3.936.183-.486.33-1.012.852-1.273-.066-.182-.166-.366.017-.544l-.013.012c.353-.421.375-.984.567-1.468.28-.7.798-1.3.879-2.094.03-.304.232-.603.4-.879a2.04 2.04 0 0 0 .31-1.263l-.01.01c.577-1.001.864-2.1 1.076-3.223l-.012.01c.229-.81.13-1.65.24-2.471zm4.595 20.68c.142.016.294.034.348-.148-.01-.132-.068-.233-.19-.268-.182-.05-.265.102-.33.217-.089.162.061.186.172.198zm.326-1.826.012-.012zm-.21.708c.06-.658-.415-1.408.325-1.953-.188-.445.09-.866.07-1.303-.017-.362-.017-.719-.132-1.057-.255.061-.164.308-.411.344-.356-2.616.006-5.25-.178-7.862l-.197.016-.002 5.944c0 .502.08 1.026-.121 1.496-.208.485-.19.98-.214 1.477-.05.984.182 1.943.244 2.914.01.158-.016.407.24.401.234-.006.353-.178.376-.415zm.392 1.781.008-.01zm.367-14.774-.01.01c.125-.587-.494-.797-.596-1.27-.044.87-.038 1.723-.044 2.576-.018 2.01-.047 4.019-.053 6.029 0 .279-.13.64.229.848.07-.085.138-.128.14-.174.052-1.116.117-2.233.131-3.35.004-.206-.156-.41-.087-.66.356-1.315.265-2.667.29-4.007zm.247 5.825.03-.04-.047-.017zm2.592-2.98c-.113.094-.154.223-.18.363l.014-.012-.014.018a.567.567 0 0 0 .188-.377v.005l-.008.016v-.012zm-.123-1.418.09-.156a.931.931 0 0 0-.09.085c-.01.014 0 .047 0 .07zm-.06-1.103c-.021.247.027.415.17.558-.01-.178.06-.376-.17-.558zm-.001 1.655-.156.144.158.006-.002-.15zm-1.783 9.597.012-.012zm.026-1.418c.049.141.101.121.154 0h-.154zm.692-.56a1.821 1.821 0 0 0 .012.011zm-.012-1.664a.519.519 0 0 0-.097.085l.101.083c.016-.041.04-.081.049-.126.004-.01-.047-.047-.053-.042zm-.435.53c-.253.366-.21.749-.077 1.135.559-.633.557-.635.077-1.133zm2.862-30.6c-.027-.284.255-.553.067-.934-.318.344-.185.648-.067.933zm-1.542 11.26-.015-.008.017-.004-.002.012zm1.813-10.31-.012-.012h.006l.006.012zm-10.336 22.959-.008-.01.012.004-.004.006zm7.292 1.965.008.008-.008-.008zm1.06-5.857.01-.01v.014l-.01-.004zm.213-6.818a2.216 2.216 0 0 1-.044-1.937c.419.322.338.775.279 1.202-.035.251-.152.49-.235.735zm-.042-1.94v.003l-.015-.01.015.008zM245.32 48.49c.146.077.22.192.134.356-.132.245-.213.53-.462.708-.33-.344-.032-.62.02-.91.037-.193.142-.24.308-.154zm10.214 9.982v-.02c.007 0 .01.003.015.007l-.015.013zm-.172-1.423c.37.467.164.949.175 1.4a.465.465 0 0 1-.25-.574c.077-.255-.003-.515.075-.826zm-.445-12.833c-.156 0-.137-.142-.101-.257.043-.136.101-.264.237-.35.212.088.087.283.121.424-.085.07-.17.183-.257.183zm.27-.193-.01.01.01-.01zm-.91-7.134a.765.765 0 0 1 .037-.692c.243.245.395.486-.036.692zm.037-.692-.006-.006.008-.024.006.014-.012.008a.676.676 0 0 1 .012-.008l-.008.016zm-.113 1.303c-.12-.242.002-.412.079-.586.089.198.176.4-.08.586zm.079-.589a.783.783 0 0 1-.008-.02l.008-.002.004.012-.004.01zm.49 12.467c.135.266 0 .476-.088.693-.004-.225-.21-.472.087-.695zm-9.005-1.437c-.089-.327-.117-.627.338-.688l-.338.688zm-.014.027.01-.012.004-.013.008.025-.01-.008.01.008h-.022zm9.403-2.93c-.022-.01-.053-.045-.05-.068.001-.046.022-.093.036-.141l.11.133c.011.077-.021.108-.096.075zm.202 10.37c-.06.034-.105.003-.11-.071-.003-.023.021-.047.033-.071.027 0 .06-.006.077.006.061.04.065.097 0 .135zm-1.103-15.064c.13.075.053.176.039.27-.03-.072-.06-.143-.087-.217-.004-.01.044-.055.048-.053zm.037.308v-.037l.012.024zm-.09 1.214c-.064-.136.03-.207.114-.281-.006.1.081.216-.04.303-.013.008-.065-.006-.073-.022zm.096.708c.016.142-.085.16-.182.182.036-.085.008-.208.135-.238.01-.002.045.034.047.054zm-8.697 5.4c.049-.008.102-.006.15-.006-.03.04-.06.085-.095.121-.06.06-.152.13-.202.033-.047-.098.064-.134.147-.148zm9.387-6.85.02.064-.07-.01zm-.682.228a4.197 4.197 0 0 0-.053-.065l.061.055-.008.01zm-1.25 10.532a.314.314 0 0 1 0 .324v-.324zm1.6 6.385.008.008-.008-.008zm.72-14.053-.01.01-.19-.193.01-.008.19.19zm-.19-4.267.01-.01v.037a.048.048 0 0 0-.01-.027zm.012.027a.14.14 0 0 1 0 .109.765.765 0 0 0 0-.11zm-.01.131.01-.024v.032zm-1.078 2.666.008.202-.01.01-.01-.225.02-.004-.008.017zm.182-2.121.012-.013-.012.013zm.024.69.012.234a1.21 1.21 0 0 0-.012.009l.002-.02-.012-.213.01-.01zm-13.108 11.066c-.172-.623.206-1.022.562-1.427l-.562 1.427zm2.183-6.296c.033-.03.073-.05.11-.075l.026.07c-.014.068-.053.094-.107.068-.019-.006-.035-.059-.029-.063zm-.724 2.165c.03-.04.073-.07.111-.107.01.026.02.05.035.077l-.114.101c-.012-.024-.04-.06-.032-.069zm-2.105 5.242c-.057-.058-.04-.093.04-.089.01 0 .019.043.027.067-.022.008-.06.03-.067.022zm1.817-4.32-.012-.01a.11.11 0 0 1 .023-.02zm.01-.03.073-.173c.108.121-.008.135-.072.174zm.683-1.857.02-.055a1.012 1.012 0 0 0 .012.013l-.032.042zm-.06.15c0-.02-.01-.049 0-.063a.937.937 0 0 1 .06-.087l-.06.15zm.24-.757.01.012-.029.049.019-.061zm-.148.565-.012-.015.02-.066a2.609 2.609 0 0 0-.008.08zm.008-.081a1.127 1.127 0 0 1 .121-.425l-.12.425zm.607-2.142c.057-.058.09-.044.091.037l-.069.03c-.008-.024-.03-.06-.022-.067zm-3.48 9.286c-.007-.012.011-.053.02-.053.062.004.074.035.032.081-.02-.008-.047-.014-.053-.028zm4.812-10.124-.01.01.01-.01zm.338-4.978.012-.01-.012.01zm-.18.534.012-.012zm5.804 14.962c.029.004.065.098.06.148 0 .045-.05.087-.08.134-.039-.04-.1-.073-.11-.118-.02-.093.017-.182.13-.164zm-.546.31-.02-.075.058.008zm1.346-9.933-.01.01.01-.01zm-17.266-6.235-.012.012.012-.012zm57.4-9.883.005.006h-.008l.004-.006zm1.263-11.66c.308 1.727.219 3.455.13 5.176a20.623 20.623 0 0 1-.478 3.274c-.218 1.012-.65 1.943-1.04 2.89-.069.17-.077.278.122.324-.126.146-.25.296-.379.437-.148.16-.235.03-.324-.07-.71.212-.694.894-.915 1.422l.01-.01c-.582 1.429-1.032 2.906-1.558 4.351-.417 1.142-.688 2.395-1.504 3.376l.015-.012c-.64 1.046-.911 2.301-1.791 3.212.036-.775.558-1.364.81-2.058.153-.431.355-.842.434-1.296-.297.166-.425.464-.566.75-.385.766-.78 1.527-1.146 2.302-.168.354-.374.3-.623.146h-.006c-.54.208-.703.729-.943 1.174a81.14 81.14 0 0 1-2.304 3.987c-.293.482-.574.97-.872 1.445-.184.297-.384.587-.706.757.04.409-.237.71-.356 1.066.43.037.61-.303.797-.587.144-.218.217-.485.445-.647l-.01-.014h.016l-.004.006.356.182-.002-.002v-.184l.006-.006h.005v.194h-.005.005l-.01-.004c-.193.514-.594.894-.893 1.336-1.174 1.73-2.328 3.47-3.576 5.144-1.014 1.364-2.245 2.552-3.459 3.742-.39.383-.696.715-.522 1.308.065.22.014.475.008.714-.026 1.02-.213 1.32-1.23 1.348-1.603.04-3.218.23-4.811-.16-.257-.063-.522-.283-.83-.006-.144.128-.336-.085-.415-.243a4.685 4.685 0 0 1-.336-.826c-.152-.54-.283-1.072-.728-1.479-.306-.281-.172-.611.04-.888.188-.247.344-.49.267-.816-.291-1.202-.19-2.435-.233-3.649-.107-3.018-.532-5.999-.929-8.98-.307-2.311-.48-4.63-.73-6.944-.253-2.315-.36-4.642-.547-6.962-.166-2.05-.37-4.102-.465-6.152-.134-2.919-.547-5.829-.393-8.761.04-.81-.212-1.6-.123-2.413.042-.405-.255-.546-.583-.682-.72-.295-.826-.554-.615-1.313.125-.442.378-.816.655-1.166a1.878 1.878 0 0 0 .403-1.51c-.101-.678-.06-1.366-.202-2.048-.111-.557.08-1.127.22-1.676.118-.467.5-.534.931-.471 1.004.147 2.012.279 3.016.43.526.08 1.032.067 1.433-.323.656-.64 1.502-.982 2.293-1.366.904-.44 1.783-.986 2.789-1.188 1.538-.312 3.001-.907 4.632-.907 2.168 0 4.115.617 5.983 1.605 1.32.698 2.596 1.475 3.92 2.161 1.609.834 3.09 1.826 4.222 3.259.983 1.247 1.754 2.63 2.218 4.159.249.824.514 1.643.587 2.522.046.54.295 1.06.394 1.619zM276.16 54.458c.39-.075.599-.33.698-.694l-.348.174-.35.348zm1.436-1.615a.668.668 0 0 0 .342-.34c-.196.03-.301.152-.34.34zm.179-.898.157.004-.157-.162v.158zm.182.534c.141-.168.125-.336 0-.506v.506zm-.193-.708.553-1.255c-.733.755-1.352 1.568-1.983 2.37-.29.364-.561.769-1.071.866l-.012.33a20.86 20.86 0 0 1-.176-.33c-.207.405-.5.676-.903.93-.514.325-.894.859-1.33 1.308-.906.933-.991 1.437-.412 2.795.882-.736 1.633-1.558 2.382-2.384.073-.079.077-.222.113-.334l-.012.008-.055-.032.065.024c.56-.41 1.048-.878 1.218-1.586-.396.184-.496.671-.878.87-.055-.644.364-.895.884-1.067-.08-.32.142-.34.365-.36l.182-.53h.176l.008.34c.389-.168.55-.516.698-.877h-.342a.712.712 0 0 1-.364.523l.012.012h-.202l.02-.01c-.146-.496.338-.363.524-.527l.014-.182-.012.008c.22-.279.045-.795.538-.91zm.705-.247c.083.06.133-.045.162-.122.014-.046.02-.097.028-.145-.047.02-.095.038-.132.068-.06.05-.137.142-.06.199zm.206-.294c.105-.04.207-.099.182-.222-.012-.049-.115-.08-.184-.114l.002.336zm.182-1.463c.17-.05.158-.188.158-.32-.125.055-.235.126-.226.288 0 .012.048.036.068.032zm.112.451c-.01.014-.004.04-.004.061l.04-.095a.146.146 0 0 0-.036.034zm.062-.791c.314-.036.312-.28.334-.508a.77.77 0 0 0-.334.508zm.512-.87-.157.336.172.004zm.025-.05c.178-.102.384-.183.402-.523-.242.164-.323.344-.402.522zm1.722-2.565c.016-.06-.038-.091-.079-.04-.022.026-.018.076-.02.123.04-.026.089-.049.099-.083zm3.171-4.42c.02-.006.035-.02.051-.03l-.081.034c.012 0 .02 0 .03-.004zm.858-17.99c.413-2.33.676-4.66.547-7.023-.101-1.836-.158-3.675-.804-5.438-.429-1.178-.87-2.342-1.491-3.439-.417-.736-1.04-.967-1.85-.969-.57 0-1.103.176-1.655.219-1.745.13-3.368.619-4.959 1.352-1.22.562-2.443 1.1-3.527 1.898a55.774 55.774 0 0 0-2.267 1.749c-.29.238-.545.516-.55.971-.025 1.465-.007 2.935.17 4.384.333 2.758.3 5.539.582 8.301.207 2.016.253 4.048.41 6.068.19 2.469.475 4.932.622 7.403.209 3.49.474 6.972.836 10.447.073.7-.008 1.419.176 2.107l.215.093c.8-1.024 1.64-2.02 2.384-3.082.755-1.073 1.368-2.236 2.117-3.32.74-1.072 1.38-2.22 2.01-3.365.603-1.097 1.064-2.277 1.716-3.343 1.348-2.206 2.238-4.605 3.155-6.999.223-.585.486-1.16.658-1.76.585-2.065 1.131-4.133 1.505-6.254zm1.575 14.304-.127.456c.103-.136.115-.296.127-.456zm.235-.131c.054-.033.02-.105-.04-.081-.061.022-.108.08-.16.131.068-.012.141-.016.2-.05zm4.116-8.38c.04-.035.128-.058.017-.126zm-5.751 12.403-.015-.012.017-.02-.002.032zm-3.42 5.206.01.008h-.019l.008-.008zm-.009.008c-.482.546-.635 1.32-1.243 1.777l-.356.002c.19-.385.553-.638.662-1.113a.89.89 0 0 1 .937-.666zm3.429-5.214-.025.02a2.51 2.51 0 0 0 .01-.032l.015.012zm-1.087 1.783-.012-.01.024-.02-.012.03zm.012-.028c.255-.638.465-1.3 1.048-1.737-.202.668-.471 1.296-1.048 1.737zm-2.111 2.59c.022.005.055-.002.067.01.012.015.02.051.01.07-.037.068-.075.064-.1-.01-.005-.021.015-.045.023-.068zm.482-.756.01.01c-.004 0-.008 0-.012.004l.002-.014zm.008.165-.012.01v-.01h.012zm-.01-.151a.755.755 0 0 0-.002.154l-.207.016c.002-.142.122-.136.209-.17zm-3.344 8.18c.027-.03.059-.059.09-.087l-.092.154c0-.02-.01-.053.002-.067zm.11-.121.008.008-.029.026.02-.034zm2.303-6.881c.062-.06.097-.045.095.036l-.073.03c-.008-.024-.03-.06-.022-.068zm-2.868 7.771-.033-.048.061-.009zm-3.514 3.734-.01.002.061-.024c-.018.008-.032.02-.05.022zm-.064.012.054-.01-.048.02.008.215-.008.01a44.913 44.913 0 0 0-.006-.235zm8.996-14.513-.027.02.015-.032.012.012zm-.059.057a.158.158 0 0 1 .034-.036l-.04.097c0-.02-.004-.047.006-.061zm-9.083 11.797-.01-.01.008-.006v.016zm-.006-1.267-.01.01v-.028l.01.018zm-.172 1.45-.014-.015.182-.178.01.01-.178.182zm0 0-.045.027.03-.042zm2.151-2.879-.012.01.012-.01zm23.212-15.43.012.013-.01.004-.002-.017zm-2.67-17.63v-.01h.01l-.008.009v.002zm7.422 34.993c.04 1.247.095 2.485.022 3.73-.04.676-.07 1.352.004 2.036.075.688-.194 1.056-.882 1.073-.72.016-1.354.55-2.095.289-.328.318-.714.433-1.174.463a8.757 8.757 0 0 1-1.208.017c-.466-.035-.887.151-1.368-.195-.344-.243-.33.352-.559.565-.275-.235-.287-.56-.32-.866-.04-.383-.026-.773-.09-1.15-.041-.235-.187-.166-.286-.006l.01-.006v.04l-.01-.03-.17.172a.963.963 0 0 1 .006.012h-.018l.01-.014c-.087-.647-.06-1.066.091-1.56a.51.51 0 0 0 .03-.255c-.33-1.302-.125-2.625-.188-3.937-.036-.769-.101-1.532-.158-2.299-.06-.823-.15-1.643-.08-2.479.05-.607-.106-1.218-.116-1.84-.026-1.594.057-3.19-.012-4.786-.06-1.44-.219-2.888.014-4.331.055-.348.053-.714.004-1.063-.048-.344-.02-.635.188-.922.17-.237.336-.498.106-.802-.035-.044-.077-.127-.061-.154.643-.914.316-2.056.718-3.062.294.128.229.39.219.601-.037.68-.142 1.36-.138 2.038.018 2.393.071 4.787.152 7.181.21-.735.1-1.502.202-2.255.213.049.189.227.266.332l.196-.002c.34-1.388.441-2.805.494-4.228.014-.38-.045-.797.364-1.133.134.375-.158.658.03.931l-.012-.014.182.36c.425.124.298.569.474.887.348-.124.144-.561.413-.684.11 1.546.787 3.015.526 4.62.243-.057.219-.206.217-.3-.081-1.955.19-3.9.186-5.848-.002-1.925.13-3.842.245-5.758.08-1.332-.21-2.641-.257-3.967-.098-2.785-.071-5.566-.073-8.35 0-.326-.004-.652-.016-.978-.007-.121-.043-.247-.189-.261-.192-.018-.255.125-.269.28-.024.293-.032.588-.08.89-.136-.943-.023-1.941-.654-2.943-.183.961-.142 1.793-.197 2.805-.36-1.028-.257-1.918-.378-2.906-.308.668-.166 1.364-.611 1.89-.282-.208.02-.607-.324-.824-.227.268-.265.608-.318.946l-.478 3.05c-.155-.007-.317-.027-.336.202l.132.2c-.425.263-.474.688-.486 1.152-.348-.749-.374-1.536-.382-2.307-.019-1.6-.101-3.2-.077-4.797.036-2.12-.215-4.258.243-6.363.03-.146.03-.297.068-.439.158-.597.338-.753.948-.648 1.57.278 3.137.587 4.701.893.553.107 1.097.253 1.651.352.446.081.674.322.719.767.18 1.739.445 3.473.17 5.228a2.024 2.024 0 0 0-.034.53c.269 2.392.076 4.794.15 7.19.07 2.342.011 4.684.005 7.027-.004 3.172.037 6.343.015 9.513-.019 2.4-.013 4.802-.017 7.202-.004 1.239.176 2.49-.08 3.724a.662.662 0 0 0-.009.265c.383 1.77-.016 3.542.04 5.311zm-7.89-34.752a19.368 19.368 0 0 1 .102-.048c-.018 0-.034 0-.05.006-.02.006-.035.028-.051.042zm3.8-4.031c.062.04.125.008.121-.067 0-.046-.05-.09-.079-.137-.07-.023-.13 0-.127.068.002.049.044.108.085.136zm-2.848 25.446.032-.093a.144.144 0 0 0-.028.034c-.01.016-.004.04-.004.059zm.328 1.42c.042-.6.174-1.07-.081-1.527-.121.465-.237.935.08 1.528zm1.42-2.912c-.016.016-.042.033-.044.049 0 .02.02.04.035.06l.048-.046-.038-.063zm-.627-2.277c.047.075.136.152.203.096.172-.142.01-.308-.008-.464-.002-.02-.013-.042-.02-.065-.231.073-.316.207-.175.433zm.09.411c-.045.401-.088.648.08.978.235-.358.195-.597-.08-.978zm.619 2.544c-.446-.103-.199-.684-.652-.963.053 1.174-.04 2.23.324 3.252a.82.82 0 0 1 .494-.168c-.37-.445-.53-.91-.158-1.44.16-.227 0-.454-.008-.68zm-.245 4.562v-.06l-.039.03zm.075.767.008.006zm-.158-3.02c.004.512.01.514.46.608a1.48 1.48 0 0 0-.46-.608zm1.352.217a.158.158 0 0 0 .002-.081c-.006-.024-.025-.044-.037-.069l-.024.156c.02 0 .057 0 .059-.006zm-.466-12.491c-.03-2.781-.073-5.56.02-8.338.006-.162-.066-.357.156-.513.156 1.369.142 2.719.152 4.064.012 1.773-.04 3.546-.06 5.321-.005.174.003.35-.118.496-.14-.33-.146-.682-.15-1.032zm.156 1.046-.012-.008.004-.008.006.016zm-.615-5.38c-.07-1.626-.146-3.254.069-4.877-.02 1.627-.01 3.253-.07 4.878zm-2.577 6.435c-.386-.308.085-.697-.07-1.027.257.324.255.668.07 1.027zm2.684 4.393c-.138-.427-.012-.696.182-.95.037.29.142.592-.182.95zm-2.704-6.302-.008-.002.008-.01v.012zm.182.421c-.154.06-.198-.047-.202-.174 0-.081.012-.164.02-.247.113.028.21.079.25.2.023.085.02.187-.07.221zm3.03.433-.01.02-.002-.03.012.01zm.02.632c-.174-.215-.141-.415-.03-.612l.03.612zm-.516-12.783c.118-.008.118.093.113.172-.004.053-.04.15-.058.148-.101-.008-.128-.091-.13-.187.023-.042.047-.131.075-.133zm-2.726 11.064.006-.006.002.016.004.21-.01.011c0-.077 0-.154-.004-.23zm.115-.127c-.02.046-.07.08-.109.121-.008-.054-.024-.109-.012-.156.02-.077.065-.15.103-.222a.205.205 0 0 1 .071.02c-.014.081-.02.162-.053.237zm3.117-9.332c-.06.012-.091-.02-.08-.081.013-.02.023-.053.04-.057.06-.012.093.02.08.081-.003.022-.024.053-.04.057zm-.34 15.02.002-.007.012.016-.008-.004.008.004-.012.014-.002-.022zm-.05-.363a.172.172 0 0 1 .113.202c-.01.055-.04.103-.06.154l-.092-.126c-.049-.067-.111-.133-.04-.222.01-.015.054-.019.079-.008zm-1.197-1.122c.006-.02.045-.046.057-.04.12.052.083.162.087.255-.1-.037-.188-.081-.144-.215zm.156.219-.01.01v-.014l.01.004zm.917-14.42c.063.006.083.045.06.107l-.12.053c-.003-.045-.01-.09-.005-.132.002-.014.043-.03.065-.028zm-3.323 41.691c.012-.006.036.014.057.02 0 .025.008.057-.004.071-.041.047-.08.033-.09-.036-.004-.016.02-.045.037-.055zm2.408-30.882-.03.057-.034-.049zm-2.787-3.894.051.005-.03.048zm1.02 5.394-.012-.028.006-.014.006.004-.01.008a.308.308 0 0 1 .01-.008v.038zm.03.077c-.01-.016-.023-.03-.028-.047a.13.13 0 0 1-.002-.03zm-.41 28.04.004-.006.012.006h-.016zm-.081.128a2.808 2.808 0 0 1-.079-.13l.162.002-.085.128zm.097-.128-.012-.006a.15.15 0 0 1 .012-.014v.02zm.02-.062c.002.012-.01.026-.02.04v-.131c.008.03.018.06.02.09zm-.562-35.009.01-.01-.01.01zm2.857 7.66-.012-.01.012.01zm.007.693-.01.01.01-.01zm25.957 26.599-.01-.012.004-.002.006.014zm10.569-35.986c.188 1.753.02 3.493.08 5.236.037 1.086-.129 2.181-.246 3.268-.101.943-.04 1.888-.202 2.834-.433 2.533-.638 5.104-1.286 7.601-.222.856-.39 1.737-.93 2.47-.106.14-.043.416-.381.398-.182-.008-.249.364-.198.429.358.46-.04.805-.197 1.123-.323.668-.51 1.382-.763 2.07-.157.432-.364.243-.59.197.246-.587.528-1.154.645-1.8.093-.515.257-.97-.014-1.511-.168-.332-.15-.81.267-1.095.034.142 0 .36.227.33.145-.018.115-.22.14-.35l-.015.014v-.014h.008c.48-.694.565-1.522.67-2.312.107-.789.322-1.538.48-2.288.228-.027.184.238.368.23.196-.528.34-1.054-.172-1.518-.008-.008.055-.097.083-.147l-.01-.01.008.008-.008-.009c.079.013.223.045.227.035.162-.528.491-1.048.125-1.617.27-.142.312-.39.318-.664.02-.917.105-1.823.293-2.724.093-.44.033-.607-.263-1.233-.239.067-.087.37-.275.466-.182-.421.152-.798.107-1.206l.01.012c-.419-.486-.194-1.152-.512-1.78-.384.912-.105 1.859-.504 2.776-.283-.863.002-1.7-.263-2.49-.243.77-.287 1.579-.668 2.419-.289-.52-.08-1.006-.232-1.632-.51.921-.415 1.798-.638 2.587-.222.79-.303 1.623-.374 2.453-.071.832-.34 1.647-.324 2.505l-.176-.008v-1.643l-.156-.014-.465 2.299c-.363-.648-.037-1.28-.262-2.018l-1.627 7.772c.587-.747.506-1.749 1.069-2.64-.26 3.03-3.305 12.31-6.393 15.762.433-.133.78-.435 1.066-.753a15.565 15.565 0 0 0 1.463-1.876c.5-.765.895-1.596 1.362-2.382.264-.439.462-.896.604-1.38.08-.277.23-.304.449-.186-.13.522-.569 1.012-.18 1.59a.164.164 0 0 0 .02-.036l-.01.05-.012-.01a1.465 1.465 0 0 0-.794.948c-.232.821-.886 1.439-1.18 2.24-.455.198-.502.704-.773 1.042-.44.55-.838 1.134-1.386 1.88.9-.141 1.473-.477 1.977-.957l.023-.532c.303 0 .475-.243.708-.376.016-.166-.047-.379.123-.466.178-.091.316.055.421.198l.344.466.015-.01-.003.022-.014-.01c-.259.314-.485.672-.874.844-.344.15-.352.518-.552.759l-.355.336c-.066-.134-.15-.265-.317-.207-.134.045-.292.128-.359.243-.485.842-1.325.885-2.151 1-1.846.26-3.718.324-5.54.771a6.013 6.013 0 0 1-1.853.142c-1.03-.069-1.807-.615-2.408-1.356-.818-1.01-1.413-2.166-1.982-3.348-1.19-2.489-1.47-5.152-1.838-7.824-.467-3.39-.516-6.788-.477-10.196.002-.206-.01-.417.02-.621.415-2.694.239-5.428.6-8.134.21-1.583.368-3.168.627-4.75.226-1.4.465-2.801.698-4.202.103-.619.243-1.216.48-1.799a7.18 7.18 0 0 0 .524-2.058c.075-.846.42-1.595.882-2.301.267-.41.587-.553 1.052-.417.514.152 1.03.29 1.547.425.728.192.91.154 1.2-.51.344-.785.769-1.538 1.09-2.324a12.275 12.275 0 0 1 3.101-4.49c1.382-1.271 2.945-1.775 4.813-1.059 1.963.755 3.965 1.41 5.946 2.117 1.127.405 1.963 1.158 2.631 2.145.854 1.263 1.19 2.7 1.483 4.15.231 1.128.268 2.304.48 3.424.334 1.74.142 3.485.328 5.207zm-9.666 33.901c.004.02.022.035.034.051l-.04-.089c0 .014 0 .026.006.04zm-5.667-30.799c-.01.02-.004.047-.004.071.067.025.09 0 .06-.073 0-.008-.054-.006-.058.002zm-4.043 4.532c-.12.111-.04.243-.025.38a.395.395 0 0 0 .025-.38zm-.164 7.751c-.01.016 0 .043 0 .065l.034-.105a.16.16 0 0 0-.034.04zm-.203-3.924-.036.063.055.01zm-.107 4.422c-.016.02-.049.053-.047.057.03.036.065.069.102.1l.042-.054-.097-.103zm-2.416 6.266c0 .022-.009.048-.002.067.002.008.036.006.056.008 0-.022.01-.049.002-.067-.002-.008-.036-.006-.056-.008zm-.514 6.646c.06.006.089-.026.078-.097-.004-.024-.008-.055-.022-.073-.044-.05-.093-.04-.101.033-.004.042.028.09.045.137zm.182.743.048-.057a26.23 26.23 0 0 1-.036-.068c-.016.02-.045.038-.047.058 0 .02.023.045.035.067zm.613.457c.174.193.285.193.305-.097.01-.164.128-.156.241-.162.014-.141.071-.297.029-.419-.26-.72-.322-1.481-.49-2.218-.162-.704-.273-1.42-.575-2.096-.121-.276-.488-.553-.229-.937-.477.06-.279.437-.253.667.183 1.605.446 3.198.798 4.773.038.172.048.35.174.49zm.471.89c.033-.08 0-.159-.08-.208-.041.02-.112.035-.122.07-.028.08-.014.171.079.202.032.012.11-.029.123-.061zm.092-1.12c.024.1.04.206.08.303.027.063.071.174.172.081.02-.02-.002-.117-.032-.158-.067-.08-.146-.151-.223-.226zm.113 1.76c-.047.055-.035.087.036.091.008 0 .03-.044.023-.058-.009-.016-.039-.02-.06-.03zm.087 1.567c.093-.113.012-.194-.053-.277-.01.097-.105.188-.02.289.01.01.06.002.073-.012zm-.047-.52c.219-.03.253-.188.233-.37-.004-.037-.095-.1-.111-.09-.15.091-.09.253-.114.385l-.008.075zm.274 1.194c.012-.024.032-.049.032-.071 0-.026-.02-.067-.039-.07-.074-.02-.097.02-.056.092.01.02.04.033.063.049zm-.152-2.957c-.025.389.186.55.445.682-.093-.24-.07-.557-.445-.682zm.556 1.287c.05-.22-.044-.395-.1-.575-.072.203-.195.415.1.575zm.162 1.992.053-.015-.045-.044zm.027-1.29c-.04.096.02.162.076.225.035.039.081.065.126.097 0-.052.004-.105 0-.156-.01-.085-.032-.17-.13-.196-.02-.004-.064.012-.072.03zm.763 1.25c.05.295.202.52.518.738-.077-.403-.304-.567-.518-.739zm.866-.58c.239.071.279-.048.25-.259-.013-.1.067-.249-.115-.243-.141.006-.158.134-.147.257.008.081.008.162.012.245zm-.004-3.048.048.049.012-.065zm.34.43c-.043.056-.138.105-.02.19l.02-.193zm.368 1.469c.01-.022.034-.053.026-.069-.01-.02-.042-.028-.066-.04l-.03.068.07.04zm.433 1.113.053-.136c-.033-.04-.061-.111-.093-.113-.122-.008-.116.075-.073.15.02.04.075.067.113.1zm1.986-1.101c.202-.468.48-.885.712-1.328.52-.99 1.216-1.866 1.609-2.942.496-1.358.981-2.725 1.463-4.085.421-1.186.761-2.418 1.067-3.653.477-1.928.744-3.893 1.097-5.84.255-1.415.394-2.866.49-4.317.129-1.974.352-3.939.41-5.922.047-1.597.142-3.192.154-4.793.006-.971.032-1.944.016-2.922-.016-1.093-.202-2.168-.143-3.275.052-1.062-.195-2.143-.472-3.286a10.532 10.532 0 0 0-2.143 3.628c-.486 1.356-1.085 2.67-1.546 4.042-.668 1.998-1.255 4.03-2.045 5.987-.15.376-.083.76-.176 1.129-.034.142-.087.297-.263.314-.24.022-.048-.357-.291-.34-.42.419-.462 1.02-.757 1.493-.21-.38.101-.836-.166-1.208a1.09 1.09 0 0 0-.324.617c-.121.856-.461 1.656-.656 2.492-.032.141-.01.348-.151.398-.684.245-.571.761-.474 1.28l.02-.015-.018.03-.01-.012c-.15.867-.271 1.739-.472 2.591-.042.182.28.89-.475.546-.09-.04-.142.166-.144.278-.008.234.008.47.014.704l.004-.004a.144.144 0 0 1 .006-.006l.183-.006.008.01c-.065 0-.128.004-.193.006l-.166 1.396c.187.102.172.264.118.436-.073.222-.134.445-.067.676.04.131.097.303.28.24.08-.03.129-.155.192-.247.04.54.214 1.055.151 1.626-.09.82.533 1.528 1.348 1.702.116.024.237.02.354.034.154.018.3.067.34.235.04.17-.074.257-.208.344-.91.607-1.79 1.31-3.01.907-.161-.053-.352-.033-.53-.03-.558.005-.686.11-.643.687.133 1.802.263 3.603.455 5.4.09.818.291 1.631.516 2.425.174.617.466 1.198.573 1.843.06.367.156.75.465 1.043.385-.324.11-.624.029-.92h.002c-.21-.252-.377-.54-.298-.865.101-.423-.024-.81-.075-1.215-.032-.255-.113-.512.006-.769-.216-.083-.301-.26-.32-.478-.05-.619-.105-1.236-.145-1.855-.006-.116.05-.23.218-.261.31.259.067.68.255.977.177.06.215.186.166.352l-.164.016a.782.782 0 0 0 .122.407c.542.848.913 1.755.933 2.779l.352.372c-.113.085-.14.215-.162.344.162.071.286.168.352.346.184.492.407.97.571 1.466.067.21.077.433.356.372.243-.052.409-.218.415-.496.006-.214-.089-.394-.174-.58-.134-.288-.314-.56-.295-.897.41.028.425.44.625.668.306.35.546.354.729-.071zm-3.417-.676c.008-.016 0-.04-.002-.063l-.028.103a.16.16 0 0 0 .03-.04zm-.419-4.056v-.328a.271.271 0 0 0 0 .328zm10.124-4.23-.01.023c-.007.016-.007.034-.009.05l.02-.07zm-2.111 5.491v-.348c-.423.25-.56.595-.344 1.052l.164.004c.01-.249.008-.502.18-.708zm-3.008 5.691c.29.06.318-.136.334-.342h-.17l-.162.342zm5.246-9.346c.37-.822.43-1.7.775-2.653-.457.234-.64.536-.878.779l-.002.004c.131.237.291.538-.11.611-.511.095-.655.425-.79.84-.157.476-.35.941-.527 1.41l.01-.012.02.025-.026-.01c-.225.593-.46 1.184-.668 1.783-.054.16-.024.348-.03.522.214.12.194.24-.002.36.08.273.214.56-.182.712l-.166.175-.02-.166c-.25.048-.389.234-.502.437-.54.97-1.073 1.943-1.61 2.914l.519-.332-.01-.012.014.01c.324-.445.314-1.103.878-1.396-.131.57-.25 1.143-.704 1.568l.006.012-.01-.01-.717.547-.002-.338-.172.338c-.131.275-.392.526-.172.87l.156-.166.022.166c.353-.049.537-.304.743-.559 1.049-1.29 1.76-2.785 2.605-4.2.457-.764.672-1.624 1-2.434.226-.558.297-1.23.552-1.795zm1.038-3.515c.102-.264.209-.527.12-.81a.816.816 0 0 0-.12.81zm1.968-12.646c.121-.627.097-1.256.008-1.886-.128.63-.083 1.26-.008 1.886zm1.113 3.714c.052-.263.127-.512.066-.78-.182.035-.15.171-.163.276-.013.087-.027.176-.017.263.008.083-.08.225.114.241zm2.449-6.899c.032-.075.054-.158-.04-.239-.05.06-.114.115-.143.186-.026.07-.038.17.081.172.035 0 .081-.072.102-.119zm-1.101 16.318.034-.065c-.022-.01-.049-.034-.063-.028-.018.008-.024.04-.036.06l.065.033zm1.115-1.732c.012-.018.034-.035.034-.053 0-.02-.02-.036-.034-.054-.012.018-.035.034-.035.052 0 .02.023.037.035.055zm.111-.723c.105 0 .111-.095.132-.186-.015-.06.01-.176-.102-.15-.048.013-.08.134-.097.209-.008.04.043.127.067.127zm.285-1.348c.142-.267.2-.463.055-.742-.19.257-.217.455-.055.742zM319.1 56.37v.01l-.014-.002.013-.008a.66.66 0 0 1-.01.008l.008-.016.004.008zm-1.052-.555-.01.008.008-.006.002-.002zm-.902-14.754.012-.01-.012.016v-.006zm2.501-10.18-.01-.01.002-.006.008.016zm14.764 7.343.01-.012.002.004-.012.008zm-6.377 14.41.012.01-.014-.006.002-.004zm-2.14 7.636-.012.01.013-.01zm-.012-2.854-.008.008v-.004l.008-.002zm5.507-7.138-.008-.012.012.004-.004.008zm1.85-8.063c-.208-.806.024-1.585.15-2.364.107-.66.267-1.311.32-1.98a.86.86 0 0 1 .174.737c-.27 1.193-.267 2.43-.644 3.607zm.462-4.355.01-.01v.02l-.01-.01zm-.707 5.043c.073 1.006-.366 1.947-.35 2.94h-.342c.19-.987.308-1.993.692-2.94zm-.692 2.94-.002.015c-.004 0-.006.004-.008.006l-.006-.02h.016zm-3.598 10.343c.202.103.062.317-.008.453-.114.212-.272.423-.486.07.095-.06.182-.135.186-.254.008-.209.101-.373.308-.27zm-.506.534.012-.012v.002l-.012.01zm.038-5.03c.199.424-.054.658-.192.92.002-.292-.09-.606.192-.92zm-.204.944.012-.027v.039l-.012-.012zm1.767 1.959.002-.014.014.01-.016.004zm-.346.227a.504.504 0 0 1 .344-.227c-.027.142-.04.283-.09.417-.052.141-.176.287-.327.182-.17-.122.002-.26.073-.372zm.36-.231-.012-.01.012-.01v.02zm.356-1.049a.94.94 0 0 1-.356 1.029 1.457 1.457 0 0 1 .356-1.029zm0 0-.004-.02.01.012-.006.008zm-1.067 1.994c.091 0 .16.05.176.148-.008.09-.046.182-.143.16a.298.298 0 0 1-.176-.162c-.043-.112.054-.148.143-.146zm-.696-2.119c-.036-.012-.069-.085-.075-.134-.008-.079-.012-.172.112-.184.085.029.117.105.12.188 0 .098-.062.158-.157.13zm2.868-2.497c.04.016.113.02.13.056.048.11.046.243-.063.3-.095.048-.136-.061-.152-.142-.02-.083-.02-.17.085-.214zm-3.803 6.842a.79.79 0 0 0-.506-.17c.09-.101.126-.31.286-.255.168.057.172.265.22.425zm-.52-.17h.014l-.006.008zm.536.182-.01.008-.006-.02.016.012zm.104.53c.17.124-.02.169-.077.23-.05.054-.122.09-.189.133.013-.101.013-.209.05-.302.031-.08.149-.109.216-.06zm3.222-6.071c-.035-.097.03-.162.095-.219.04-.034.087-.06.131-.09l-.026.155c-.016.083-.028.174-.132.194-.02.005-.06-.02-.068-.04zm.23-.324.008.008-.01.008.002-.018zm.36-3.396c-.141-.239.003-.378.175-.51.089.22-.019.373-.174.51l.188.188-.01.01-.189-.188zm.169-.526.012.012-.006.004-.006-.018zm0 0 .02-.01-.008.02-.012-.012zm.275-.26c-.04.068-.077.137-.13.19-.03.03-.08.044-.125.06.014-.045.024-.093.05-.13.04-.06.102-.115.15-.17a.28.28 0 0 1 .055.05zm2.704-12.674c-.055.024-.081-.013-.067-.087.004-.02.03-.037.048-.057l.037.069c-.006.026-.004.068-.018.075zm-4.218 17.955.004-.028.012.01-.016.018zm0 0a1.133 1.133 0 0 1-.152.486c.02-.172.026-.348.152-.486zm-.156.526-.012-.012.016-.028-.004.04zm4.21-15.55c.016-.021.04-.011 0 0zm.024.242-.004-.065.014.053-.01.012zm-.024-.243c-.01.01-.014.032 0 .069a.316.316 0 0 1 .02.11l-.047-.175a.283.283 0 0 0 .027-.004zm-.312-2.155h.06l-.024.052zm-.467-.962.036.015-.022.042zm-3.212 18.061a.15.15 0 0 1-.033.033l.04-.094c-.001.02 0 .045-.007.061zm-.049.063-.012-.01.026-.02-.014.03zm-2.457 1.137c0 .017 0 .035-.006.049 0 .006-.006.012-.01.02l.016-.069zm-2.182 4.728.01-.008v.008h-.01zm5.886-9.976-.008-.008.008-.018v.026zm-.012-.167.01-.01v.03l-.01-.02zm.01.02a.121.121 0 0 1 0 .121v-.121zm2.11-11.093.005.006.006.207-.01.01-.006-.231.006.008zm-14.58 17.992c.09.263.14.496-.023.733-.34-.717-.626-1.45-.695-2.247-.02-.233-.113-.388-.346-.439v-1.162c.197-.028.231.17.26.316.183.957.497 1.876.805 2.797zm-1.064-1.947-.01-.01.01.004v.006zm.061-20.107c.121.624.125.64-.229.854.13-.206.199-.445.229-.854zm-2.048 14.44c0-.04.05-.08.077-.121l.075.12-.075.115c-.027-.037-.077-.075-.077-.114zm1.682 3.522c.024.004.06 0 .068.014.025.047.041.097.06.146-.072-.029-.147-.055-.128-.162zm.127.16.02.008-.014.008-.006-.016zm-.28-1.455c.009-.017.045-.02.07-.033l.028.075-.073.03c-.008-.024-.03-.054-.024-.072zm-1.521-1.607c.024-.006.053-.027.069-.019.016.01.02.045.028.067-.024.008-.053.027-.069.02-.016-.012-.02-.044-.028-.068zm.722.052.027-.036-.016.046-.006-.008-.005-.002zm.027-.036.056-.174c.007.022.023.052.015.069-.02.036-.047.07-.071.105zm.267-1.441a.746.746 0 0 1-.079-.081l.14.091c-.02-.002-.049.002-.061-.01zm-.113-.103.006-.008.028.03-.034-.022zm.963 4.837c-.174-.039-.079-.128-.053-.205l.053.205zm-.059-.231.012-.008a.097.097 0 0 1-.006.034l-.006-.026zm-.836-10.862c.136.006.093.095.09.166l-.09-.166zm.096.21a.093.093 0 0 1-.007-.044l.02.034-.013.01zm2.503-10.18-.02.071c0-.028.004-.054.008-.08l.012.01zm.89.02.013-.01.018.029zm-1.056.705-.008.008.008-.008zm-2.684 20.65-.006.005.002-.012h.01zm.54-.007-.007.01.008-.01zm-1.254-4.974.008.008-.008-.008zm1.43 3.551-.01.013.01-.013zm6.056 5.003.012.013-.018.01c0-.008.004-.017.006-.023zm1.957-4.314c-.222-.193-.01-.486-.158-.662.304.121.43.303.158.662zm-1.532 3.67c-.097-.028-.065-.137-.028-.208.036-.07.097-.13.148-.194.028.1.075.196.07.294-.002.04-.137.125-.19.109zm1.002-2.663c.049-.056.101-.046.117.027.015.08.002.162-.127.206-.028.004-.07-.026-.06-.09a.312.312 0 0 1 .07-.143zm-2.682 5.81a.785.785 0 0 1-.346.309c.061-.162.166-.278.346-.306zm.01-.011.005.01-.015.004.01-.014zm-.356.32-.008.02-.014-.012.02-.008zm1.6-2.81a.081.081 0 0 1 .03-.034l-.017.047-.012-.013zm.096-.214c.106.12-.006.138-.066.182l.066-.182zm.444-.85.176-.36.012.012-.178.36-.004.006-.006-.018zm-2.162 3.882.014.012a1.447 1.447 0 0 1-.01.012l-.004-.024zm2.352-4.23-.014-.012.01-.012.004.022zm22.606-26.586.006.007h-.008v-.007zm4.548-11.444-.008.006v-.006h.008zm18.346 17.8c.385.88.431 1.863.354 2.845-.12 1.514-.546 2.959-.917 4.418l.01-.008a9.87 9.87 0 0 1-1.133 2.449c-.182.285-.336.575-.415.902-.026.118-.03.26-.1.344-1.35 1.654-2.215 3.678-3.836 5.113-.7.621-1.21 1.4-1.903 2.028-1.046.945-2.076 1.918-3.025 2.96a21.392 21.392 0 0 1-4.665 3.822c-1.923 1.173-3.815 2.438-5.97 3.201a5.084 5.084 0 0 1-3.534.008c-1.283-.449-2.603-.797-3.912-1.165-.587-.164-1.134-.417-1.696-.636a1.067 1.067 0 0 1-.567-.435c-.259-.441-.014-.978.47-1.184a1.089 1.089 0 0 1 .963.008c.739.403 1.382.184 2.044-.166.903-.477 1.805-.951 2.688-1.477 1.198-.713 2.226-1.654 3.446-2.328.976-.54 1.86-1.242 2.518-2.177.069-.1.127-.237.223-.28.896-.388 1.285-1.325 2.044-1.866.334-.236.577-.61.827-.949a8.43 8.43 0 0 1 1.31-1.378c.51-.433.933-.931 1.326-1.467 1.018-1.389 2.133-2.698 3.096-4.133 1.295-1.929 2.216-4.011 2.908-6.2.5-1.576.334-3.168-.21-4.72-.138-.391-.379-.517-.838-.466-2.099.237-4.028.987-5.932 1.835-.579.26-1.166.496-1.75.741l.005-.006c-.973.4-1.922.858-2.983 1.032-.409.065-.803.253-1.194.413-.613.251-1.269.332-1.862.105-.91-.346-1.872-.471-2.782-.789-1.14-.399-2.28-.81-3.437-1.143-1.405-.405-2.024-1.427-2.331-2.739-.57-2.412-.132-4.754.635-7.03.633-1.887 1.4-3.728 2.127-5.584.723-1.842 1.755-3.508 2.746-5.185.634-1.071 1.399-2.097 2.182-3.097.94-1.198 2.032-2.222 3.093-3.29 1.32-1.326 2.896-2.263 4.598-2.976a2.53 2.53 0 0 1 1.854-.01c1.613.62 3.096 1.492 4.586 2.356.554.324.805.886 1.15 1.368.191.273-.027.617-.325.55-1.728-.376-2.922.628-4.138 1.569-.308.237-.561.58-1.012.308v.004c-.365.01-.587.214-.725.528l.516-.085c-.247.512-.35 1.058-1.107.811-.271-.089-.439.15-.57.359-.88 1.4-2.034 2.596-2.955 3.966-.182.272-.557.53-.253.946l.073-.047-.067.053-.006-.006.004.18c-.466.002-.664.34-.82.694-.107.243-.101.441.26.239.14-.081.266.05.191.166-.368.58-.566 1.3-1.258 1.63.08.18.161.361 0 .54-.733 1.632-1.454 3.27-2.206 4.893-.158.336-.29.656-.253 1.026.036.38-.17.692-.286 1.026-.121.344-.243.678-.168 1.048l-.174.18.172.009c-.101.59-.222 1.18-.295 1.774-.081.642.089.77.702.533.957-.37 1.923-.727 2.848-1.166 1.928-.915 3.987-1.388 6.061-1.767a6.928 6.928 0 0 1 3.133.186c1.698.482 3.27 1.245 4.817 2.065.83.437 1.728.698 2.536 1.194a7.67 7.67 0 0 1 3.094 3.53zM358.15 8.228c-.287.065-.469.231-.52.527a1.083 1.083 0 0 0 .52-.527zm-1.382 1.19c-.064-.062-.14.035-.176.108-.02.042-.034.09-.05.137.04-.024.087-.046.125-.077.059-.042.174-.097.101-.167zm-6.962 9.664v-.133c-.012.014-.026.03-.026.042.004.03.016.061.026.091zm.379-1.082c.046-.065.182-.112.04-.217l-.04.217zm-.352.609c-.103.097-.05.206-.02.311.084-.08.161-.165.093-.295-.009-.016-.061-.026-.073-.016zm-.073 1.01c-.014-.008-.035-.008-.05-.012l.08.036a.172.172 0 0 0-.03-.024zm4.041-6.135.007.006c-.004 0-.007.005-.01.007l.003-.013zm-1.277 1.81c.336-.662.502-1.445 1.273-1.795-.289.692-.586 1.378-1.25 1.815-.081.253-.261.364-.612.385.17-.274.405-.304.587-.405zm2.546-3.993.009.01-.007.008-.002-.018zm-.15.574a.773.773 0 0 1 .152-.556 1.133 1.133 0 0 0 .19.536l-.005-.006.006.006-.006-.006c-.04.105-.049.26-.176.273-.16.017-.15-.14-.16-.247zm-.924 1.423a.348.348 0 0 1-.004.008v-.004.004l-.182.184-.009-.006.187-.182.008-.004zm.28-.233c.072.088-.033.15-.114.185-.053.022-.112.034-.166.048.024-.052.04-.11.075-.156.048-.074.135-.162.204-.077zm-2.865 3.815c-.093-.012-.046-.15-.024-.232l.063-.25c.04.078.101.15.113.231.02.116.008.272-.152.251zm.043-.495a.838.838 0 0 1-.004.014l-.004-.008.008-.006zm3.086-3.738c.008-.025.018-.07.024-.07.045 0 .09.013.134.021l-.022.073-.136-.024zm1.255-1.2c0-.023.026-.05.04-.073.027.008.063.008.071.024.01.02.01.063-.006.08-.054.068-.097.055-.105-.032zm-.532-.144-.008.01h-.176l-.009-.01h.193zm-8.355 16.354v-.008.008zm.03.116c0 .014-.014.03-.026.046l-.004-.162c.012.039.027.077.03.116zm-.026.063-.008-.007.008-.01v.017z" fill="#111"/>
</svg>
